<svg width="157" height="28" viewBox="0 0 157 28" fill="none" xmlns="http://www.w3.org/2000/svg">
<g clip-path="url(#clip0_1114_3767)">
<rect width="28" height="28" rx="14" fill="#1F2327"/>
<path d="M19.7651 21C21.5587 21 23 19.5765 23 17.8402C23 16.1039 21.5587 14.6805 19.7651 14.6805C18.0676 14.571 17.331 15.9788 16.242 16.9173C15.6335 17.3866 14.8648 17.6525 14 17.6525C13.1352 17.6525 12.3826 17.3866 11.758 16.9173C10.6851 15.9944 9.9484 14.571 8.23488 14.6805C6.44128 14.6805 5 16.1039 5 17.8402C5 19.5765 6.44128 21 8.23488 21H19.7651Z" fill="#FCFCFD"/>
<path d="M19.7651 7C21.5587 7 23 8.42347 23 10.1598C23 11.8961 21.5587 13.3195 19.7651 13.3195C18.0676 13.429 17.331 12.0212 16.242 11.0827C15.6335 10.6134 14.8648 10.3475 14 10.3475C13.1352 10.3475 12.3826 10.6134 11.758 11.0827C10.6851 12.0056 9.9484 13.429 8.23488 13.3195C6.44128 13.3195 5 11.8961 5 10.1598C5 8.42347 6.44128 7 8.23488 7H19.7651Z" fill="#FCFCFD"/>
<path d="M39.1951 12.6969C38.489 12.6969 37.8837 12.9491 37.3962 13.4367C36.9086 13.9242 36.6732 14.6135 36.6732 15.471C36.6732 16.3284 36.9254 17.0178 37.413 17.5222C37.9006 18.0265 38.5058 18.2787 39.2119 18.2787C39.8508 18.2787 40.3552 18.1106 40.7251 17.7912C41.095 17.4549 41.364 17.0682 41.4985 16.6143L43.8523 17.4045C43.6169 18.3124 43.0789 19.1026 42.2719 19.7583C41.4649 20.4139 40.4393 20.7502 39.2119 20.7502C37.7324 20.7502 36.4883 20.2458 35.4963 19.2539C34.4876 18.2451 34 17.001 34 15.4878C34 13.9747 34.4876 12.7137 35.4795 11.7218C36.4715 10.7298 37.682 10.2254 39.1447 10.2254C40.4057 10.2254 41.448 10.5449 42.2551 11.2006C43.0621 11.8563 43.5833 12.6465 43.8018 13.5712L41.3976 14.3782C41.0782 13.2685 40.3384 12.6969 39.1951 12.6969Z" fill="#1F2327"/>
<path d="M52.8136 10.511H54.8143V12.8985H52.8136V17.0512C52.8136 17.4715 52.9145 17.7573 53.0994 17.9423C53.2844 18.1104 53.587 18.2113 53.9905 18.2113C54.3604 18.2113 54.6294 18.1777 54.8143 18.1272V20.3465C54.4277 20.5146 53.9233 20.5819 53.3012 20.5819C52.3261 20.5819 51.5695 20.3129 50.9979 19.7581C50.4262 19.22 50.1572 18.4635 50.1572 17.5051V12.8816H48.3583V10.4942H48.8626C49.367 10.4942 49.7369 10.3429 50.0059 10.0571C50.2749 9.77128 50.3926 9.38458 50.3926 8.91383V7.51838H52.8136V10.511Z" fill="#1F2327"/>
<path d="M56.1087 8.91397C56.1087 8.46003 56.2768 8.05652 56.5962 7.73708C56.9157 7.40083 57.3024 7.24951 57.7731 7.24951C58.2439 7.24951 58.6138 7.41764 58.95 7.73708C59.2695 8.05652 59.4376 8.46003 59.4376 8.93079C59.4376 9.36792 59.2695 9.75461 58.95 10.0741C58.6306 10.3935 58.2439 10.5616 57.7731 10.5616C57.3024 10.5616 56.9325 10.3935 56.5962 10.0741C56.2768 9.75461 56.1087 9.36792 56.1087 8.93079V8.91397ZM59.1182 20.4307H56.4281V12.0075H59.1182V20.4307Z" fill="#1F2327"/>
<path d="M44.4071 8.91397C44.4071 8.46003 44.5753 8.05652 44.8947 7.73708C45.2141 7.40083 45.6008 7.24951 46.0716 7.24951C46.5424 7.24951 46.9122 7.41764 47.2485 7.73708C47.5679 8.05652 47.7361 8.46003 47.7361 8.93079C47.7361 9.36792 47.5679 9.75461 47.2485 10.0741C46.929 10.3935 46.5424 10.5616 46.0716 10.5616C45.6008 10.5616 45.231 10.3935 44.8947 10.0741C44.5753 9.75461 44.4071 9.36792 44.4071 8.93079V8.91397ZM47.4166 20.4307H44.7266V12.0075H47.4166V20.4307Z" fill="#1F2327"/>
<path d="M60.6147 20.4306V18.0768L65.3223 12.8312H60.7492V10.5111H68.7521V12.7472L63.91 18.0936H68.8361V20.4306H60.6147Z" fill="#1F2327"/>
<path d="M76.5194 16.9335L78.7555 17.6061C78.4865 18.5139 77.9653 19.2705 77.1751 19.859C76.3849 20.4474 75.4098 20.75 74.2329 20.75C72.8038 20.75 71.5933 20.2625 70.6013 19.3041C69.6094 18.3458 69.105 17.0512 69.105 15.4372C69.105 13.8232 69.5926 12.6463 70.5509 11.6712C71.5092 10.696 72.6693 10.2085 73.9807 10.2085C75.5107 10.2085 76.7212 10.6624 77.5786 11.5871C78.4529 12.495 78.8732 13.7559 78.8732 15.3531C78.8732 15.454 78.8732 15.5885 78.8732 15.723C78.8732 15.8575 78.8732 15.9584 78.8732 16.0425V16.177H71.7446C71.7782 16.8159 72.0304 17.3539 72.518 17.791C73.0056 18.2281 73.5772 18.4299 74.2497 18.4299C75.393 18.4299 76.1496 17.9255 76.5026 16.9167L76.5194 16.9335ZM71.8119 14.3444H76.2504C76.2168 13.7896 76.0319 13.3356 75.662 12.9489C75.2921 12.579 74.7541 12.3773 74.0311 12.3773C73.3923 12.3773 72.8543 12.5791 72.4507 12.9826C72.0472 13.3861 71.8287 13.84 71.8119 14.3276V14.3444Z" fill="#1F2327"/>
<path d="M83.026 14.7312V20.4475H80.3359V10.528H82.9419V11.7553C83.2277 11.2678 83.6312 10.8979 84.1524 10.6457C84.6736 10.3935 85.2284 10.259 85.8001 10.259C86.977 10.259 87.868 10.6289 88.4733 11.3518C89.0786 12.0748 89.398 13.0331 89.398 14.1932V20.4475H86.708V14.6639C86.708 14.0755 86.5566 13.5879 86.254 13.2348C85.9514 12.865 85.4974 12.6968 84.8754 12.6968C84.3037 12.6968 83.8666 12.8986 83.5303 13.2853C83.1941 13.672 83.026 14.1595 83.026 14.7648V14.7312Z" fill="#1F2327"/>
<path d="M100.276 10.3934V13.1002C100.007 13.0498 99.7378 13.0162 99.4688 13.0162C98.6954 13.0162 98.0901 13.2347 97.6194 13.6719C97.1486 14.109 96.9132 14.8319 96.9132 15.8239V20.3633H94.2232V10.4438H96.8292V11.9233C97.3167 10.8809 98.2582 10.3766 99.6537 10.3766C99.805 10.3766 100.007 10.3766 100.276 10.4102V10.3934Z" fill="#1F2327"/>
<path d="M108.06 16.8496L110.296 17.5221C110.027 18.43 109.506 19.1865 108.716 19.775C107.926 20.3634 106.95 20.6661 105.774 20.6661C104.344 20.6661 103.134 20.1785 102.142 19.2202C101.15 18.2618 100.646 16.9673 100.646 15.3532C100.646 13.7392 101.133 12.5623 102.092 11.5872C103.05 10.612 104.21 10.1245 105.521 10.1245C107.051 10.1245 108.262 10.5784 109.119 11.5031C109.994 12.411 110.414 13.672 110.414 15.2692C110.414 15.3701 110.414 15.5045 110.414 15.639C110.414 15.7735 110.414 15.8744 110.414 15.9585V16.093H103.285C103.319 16.7319 103.571 17.2699 104.059 17.707C104.546 18.1441 105.118 18.3459 105.79 18.3459C106.934 18.3459 107.69 17.8415 108.043 16.8328L108.06 16.8496ZM103.352 14.2604H107.791C107.757 13.7056 107.572 13.2516 107.203 12.865C106.833 12.4951 106.295 12.2933 105.572 12.2933C104.933 12.2933 104.395 12.4951 103.991 12.8986C103.588 13.3021 103.369 13.756 103.352 14.2436V14.2604Z" fill="#1F2327"/>
<path d="M114.18 20.3634H111.49V10.4438H114.045V11.6544C114.298 11.2004 114.701 10.8305 115.256 10.5615C115.811 10.2925 116.366 10.158 116.954 10.158C118.4 10.158 119.375 10.7128 119.896 11.8057C120.602 10.696 121.662 10.158 123.04 10.158C124.049 10.158 124.906 10.4775 125.596 11.0995C126.285 11.7216 126.638 12.6799 126.638 13.9241V20.3634H124.032V14.4789C124.032 13.9073 123.881 13.4533 123.595 13.1171C123.309 12.7808 122.872 12.5959 122.267 12.5959C121.712 12.5959 121.275 12.7808 120.939 13.1675C120.602 13.5374 120.434 14.0081 120.434 14.563V20.3802H117.778V14.4957C117.778 13.9241 117.626 13.4701 117.341 13.1339C117.055 12.7976 116.601 12.6127 116.029 12.6127C115.458 12.6127 115.021 12.7976 114.684 13.1675C114.348 13.5374 114.18 14.0081 114.18 14.563V20.3802V20.3634Z" fill="#1F2327"/>
<path d="M129.194 11.6208C130.186 10.6289 131.43 10.1245 132.909 10.1245C134.389 10.1245 135.65 10.6289 136.625 11.6208C137.617 12.6128 138.104 13.8737 138.104 15.3869C138.104 16.9 137.617 18.161 136.625 19.1529C135.633 20.1449 134.389 20.6492 132.909 20.6492C131.43 20.6492 130.169 20.1449 129.194 19.1529C128.202 18.161 127.714 16.9 127.714 15.3869C127.714 13.8737 128.202 12.6128 129.194 11.6208ZM131.127 17.4716C131.615 17.976 132.22 18.2114 132.909 18.2114C133.599 18.2114 134.204 17.9592 134.691 17.4716C135.179 16.9841 135.431 16.2779 135.431 15.3869C135.431 14.4958 135.179 13.8065 134.691 13.3021C134.204 12.7977 133.599 12.5623 132.909 12.5623C132.22 12.5623 131.615 12.8145 131.127 13.3021C130.64 13.7896 130.387 14.4958 130.387 15.3869C130.387 16.2779 130.64 16.9673 131.127 17.4716Z" fill="#1F2327"/>
<path d="M143.081 10.4271H145.082V12.8145H143.081V16.9672C143.081 17.3875 143.182 17.6733 143.367 17.8583C143.552 18.0264 143.854 18.1273 144.258 18.1273C144.628 18.1273 144.897 18.0937 145.082 18.0432V20.2625C144.695 20.4306 144.191 20.4979 143.568 20.4979C142.593 20.4979 141.837 20.2289 141.265 19.6741C140.693 19.1361 140.424 18.3795 140.424 17.4212V12.7977H138.626V10.4103H139.13C139.634 10.4103 140.004 10.2589 140.273 9.97312C140.542 9.68731 140.66 9.30061 140.66 8.82986V7.4344H143.081V10.4271Z" fill="#1F2327"/>
<path d="M153.673 16.8496L155.909 17.5221C155.64 18.43 155.119 19.1865 154.329 19.775C153.538 20.3634 152.563 20.6661 151.386 20.6661C149.957 20.6661 148.747 20.1785 147.755 19.2202C146.763 18.2618 146.258 16.9673 146.258 15.3532C146.258 13.7392 146.746 12.5623 147.704 11.5872C148.663 10.612 149.823 10.1245 151.134 10.1245C152.664 10.1245 153.875 10.5784 154.732 11.5031C155.606 12.411 156.027 13.672 156.027 15.2692C156.027 15.3701 156.027 15.5045 156.027 15.639C156.027 15.7735 156.027 15.8744 156.027 15.9585V16.093H148.898C148.932 16.7319 149.184 17.2699 149.671 17.707C150.159 18.1441 150.731 18.3459 151.403 18.3459C152.546 18.3459 153.303 17.8415 153.656 16.8328L153.673 16.8496ZM148.965 14.2604H153.404C153.37 13.7056 153.185 13.2516 152.815 12.865C152.446 12.4951 151.908 12.2933 151.185 12.2933C150.546 12.2933 150.008 12.4951 149.604 12.8986C149.201 13.3021 148.982 13.756 148.965 14.2436V14.2604Z" fill="#1F2327"/>
</g>
<defs>
<clipPath id="clip0_1114_3767">
<rect width="157" height="28" fill="white"/>
</clipPath>
</defs>
</svg>
